# Blender 3.6.2
# www.blender.org
mtllib Wall.mtl
o Icosphere
v 0.000000 2.699819 0.000000
v 1.255765 2.102916 -0.912356
v -0.479650 2.102916 -1.476236
v -1.552208 2.102912 0.000000
v -0.479650 2.102916 1.476236
v 1.255765 2.102916 0.912356
v -0.281929 2.538553 -0.867703
v 0.738115 2.538552 -0.536265
v 0.456189 2.187701 -1.403977
v 1.476234 2.187699 0.000000
v 0.738115 2.538552 0.536265
v -0.912363 2.538549 0.000000
v -1.194300 2.187700 -0.867706
v -0.281929 2.538552 0.867703
v -1.194300 2.187700 0.867706
v 0.456189 2.187701 1.403977
v 1.650488 1.620000 -0.536268
v 1.650488 1.620000 0.536268
v 0.000000 1.620000 -1.735423
v 1.020057 1.620000 -1.403986
v -1.650488 1.620000 -0.536268
v -1.020057 1.620000 -1.403986
v -1.020057 1.620000 1.403986
v -1.650488 1.620000 0.536268
v 1.020057 1.620000 1.403986
v 0.000000 1.620000 1.735423
v 1.650488 0.193729 -0.536268
v 1.650488 0.193729 0.536267
v 0.000000 0.193729 -1.735423
v 1.020057 0.193729 -1.403986
v -1.650488 0.193729 -0.536268
v -1.020057 0.193729 -1.403986
v -1.020057 0.193729 1.403986
v -1.650488 0.193729 0.536267
v 1.020057 0.193729 1.403986
v 0.000000 0.193729 1.735423
vn 0.0660 0.9770 -0.2030
vn 0.5381 0.8173 -0.2060
vn -0.1727 0.9770 -0.1255
vn -0.1727 0.9770 0.1255
vn 0.0660 0.9770 0.2030
vn 0.8357 0.4903 -0.2475
vn 0.0229 0.4903 -0.8713
vn -0.8215 0.4903 -0.2910
vn -0.5306 0.4903 0.6914
vn 0.4936 0.4903 0.7183
vn 0.7928 0.1994 -0.5760
vn -0.3028 0.1994 -0.9320
vn -0.9799 0.1994 -0.0000
vn -0.3028 0.1994 0.9320
vn 0.7928 0.1994 0.5760
vn 0.2954 0.2934 0.9092
vn 0.0229 0.4903 0.8713
vn -0.7734 0.2934 0.5619
vn -0.8215 0.4903 0.2910
vn -0.7734 0.2934 -0.5619
vn -0.5306 0.4903 -0.6914
vn 0.2954 0.2934 -0.9092
vn 0.4936 0.4903 -0.7183
vn 0.9560 0.2934 -0.0000
vn 0.8357 0.4903 0.2475
vn 0.3622 0.8173 0.4481
vn 0.1327 0.9032 0.4083
vn -0.0296 0.8173 0.5755
vn -0.3143 0.8173 0.4830
vn -0.3473 0.9032 0.2523
vn -0.5565 0.8173 0.1497
vn -0.5565 0.8173 -0.1497
vn -0.3473 0.9032 -0.2523
vn -0.3143 0.8173 -0.4830
vn 0.5381 0.8173 0.2060
vn 0.4293 0.9032 -0.0000
vn 0.2134 0.9770 -0.0000
vn -0.0296 0.8173 -0.5755
vn 0.1327 0.9032 -0.4083
vn 0.3622 0.8173 -0.4481
vn 0.3090 -0.0000 -0.9511
vn -0.0000 -1.0000 -0.0000
vn 0.8090 -0.0000 -0.5878
vn -0.8090 -0.0000 -0.5878
vn -0.3090 -0.0000 0.9511
vn -0.8090 -0.0000 0.5878
vn 0.3090 -0.0000 0.9511
vn -1.0000 -0.0000 -0.0000
vn -0.3090 -0.0000 -0.9511
vn 1.0000 -0.0000 -0.0000
vn 0.8090 -0.0000 0.5878
vt 0.181819 0.000000
vt 0.227273 0.078731
vt 0.136365 0.078731
vt 0.272728 0.157461
vt 0.318182 0.078731
vt 0.363637 0.157461
vt 0.909091 0.000000
vt 0.954545 0.078731
vt 0.863636 0.078731
vt 0.727273 0.000000
vt 0.772727 0.078731
vt 0.681818 0.078731
vt 0.545455 0.000000
vt 0.590909 0.078731
vt 0.500000 0.078731
vt 0.318182 0.236191
vt 0.090910 0.157461
vt 0.181819 0.157461
vt 0.136365 0.236191
vt 0.818182 0.157461
vt 0.909091 0.157461
vt 0.863636 0.236191
vt 0.636364 0.157461
vt 0.727273 0.157461
vt 0.681818 0.236191
vt 0.454546 0.157461
vt 0.545455 0.157461
vt 0.500000 0.236191
vt 0.227273 0.236191
vt 0.045455 0.236191
vt 0.772727 0.236191
vt 0.590909 0.236191
vt 0.409092 0.236191
vt 0.954545 0.236191
vt 1.000000 0.157461
vt 0.409092 0.078731
vt 0.363637 0.000000
s 0
usemtl Material.001
f 1/1/1 8/2/1 7/3/1
f 2/4/2 8/5/2 10/6/2
f 1/7/3 7/8/3 12/9/3
f 1/10/4 12/11/4 14/12/4
f 1/13/5 14/14/5 11/15/5
f 2/4/6 10/6/6 17/16/6
f 3/17/7 9/18/7 19/19/7
f 4/20/8 13/21/8 21/22/8
f 5/23/9 15/24/9 23/25/9
f 6/26/10 16/27/10 25/28/10
f 2/4/11 17/16/11 20/29/11
f 3/17/12 19/19/12 22/30/12
f 4/20/13 21/22/13 24/31/13
f 5/23/14 23/25/14 26/32/14
f 6/26/15 25/28/15 18/33/15
f 25/28/16 16/27/16 26/32/16
f 16/27/17 5/23/17 26/32/17
f 23/25/18 15/24/18 24/31/18
f 15/24/19 4/20/19 24/31/19
f 21/22/20 13/21/20 22/34/20
f 13/21/21 3/35/21 22/34/21
f 19/19/22 9/18/22 20/29/22
f 9/18/23 2/4/23 20/29/23
f 17/16/24 10/6/24 18/33/24
f 10/6/25 6/26/25 18/33/25
f 11/15/26 16/27/26 6/26/26
f 11/15/27 14/14/27 16/27/27
f 14/14/28 5/23/28 16/27/28
f 14/12/29 15/24/29 5/23/29
f 14/12/30 12/11/30 15/24/30
f 12/11/31 4/20/31 15/24/31
f 12/9/32 13/21/32 4/20/32
f 12/9/33 7/8/33 13/21/33
f 7/8/34 3/35/34 13/21/34
f 10/6/35 11/36/35 6/26/35
f 10/6/36 8/5/36 11/36/36
f 8/5/37 1/37/37 11/36/37
f 7/3/38 9/18/38 3/17/38
f 7/3/39 8/2/39 9/18/39
f 8/2/40 2/4/40 9/18/40
f 19/19/41 20/29/41 30/29/41 29/19/41
f 30/29/42 27/16/42 28/33/42 35/28/42 36/32/42 33/25/42 34/31/42 31/22/42 32/30/42 29/19/42
f 20/29/43 17/16/43 27/16/43 30/29/43
f 21/22/44 22/34/44 32/34/44 31/22/44
f 26/32/45 23/25/45 33/25/45 36/32/45
f 23/25/46 24/31/46 34/31/46 33/25/46
f 25/28/47 26/32/47 36/32/47 35/28/47
f 24/31/48 21/22/48 31/22/48 34/31/48
f 22/30/49 19/19/49 29/19/49 32/30/49
f 17/16/50 18/33/50 28/33/50 27/16/50
f 18/33/51 25/28/51 35/28/51 28/33/51
